<?xml version="1.0" encoding="UTF-8"?>
<svg width="460px" height="460px" viewBox="0 0 460 460" version="1.1" xmlns="http://www.w3.org/2000/svg" xmlns:xlink="http://www.w3.org/1999/xlink">
    <!-- Generator: Sketch 52.2 (67145) - http://www.bohemiancoding.com/sketch -->
    <title>Icon</title>
    <desc>Created with Sketch.</desc>
    <g id="Page-1" stroke="none" stroke-width="1" fill="none" fill-rule="evenodd">
        <g id="Logo">
            <g id="Favicon">
                <path d="M246,9.23760431 L413.185843,105.762396 C423.086677,111.478645 429.185843,122.04271 429.185843,133.475209 L429.185843,326.524791 C429.185843,337.95729 423.086677,348.521355 413.185843,354.237604 L246,450.762396 C236.099166,456.478645 223.900834,456.478645 214,450.762396 L46.8141571,354.237604 C36.9133227,348.521355 30.8141571,337.95729 30.8141571,326.524791 L30.8141571,133.475209 C30.8141571,122.04271 36.9133227,111.478645 46.8141571,105.762396 L214,9.23760431 C223.900834,3.52135487 236.099166,3.52135487 246,9.23760431 Z" id="Polygon" stroke="#4285F4" fill="#4285F4"></path>
                <path d="M146,146 L146,230 C146,276.391919 183.608081,314 230,314 C276.391919,314 314,276.391919 314,230 C314,183.608081 276.391919,146 230,146 L146,146 Z" id="Rectangle" stroke="#FFFFFF" stroke-width="32"></path>
            </g>
        </g>
    </g>
</svg>