<?xml version="1.0" encoding="UTF-8"?>
<svg width="2308px" height="512px" viewBox="0 0 2308 512" version="1.1" xmlns="http://www.w3.org/2000/svg" xmlns:xlink="http://www.w3.org/1999/xlink">
    <!-- Generator: Sketch 52.2 (67145) - http://www.bohemiancoding.com/sketch -->
    <title>Logo</title>
    <desc>Created with Sketch.</desc>
    <g id="Logo" stroke="none" stroke-width="1" fill="none" fill-rule="evenodd">
        <g id="CDS-Branding" transform="translate(-264.000000, -252.000000)">
            <g id="Logo" transform="translate(264.000000, 252.000000)">
                <g id="Logo-Small" transform="translate(19.000000, 26.000000)">
                    <g id="Favicon">
                        <path d="M246,9.23760431 L413.185843,105.762396 C423.086677,111.478645 429.185843,122.04271 429.185843,133.475209 L429.185843,326.524791 C429.185843,337.95729 423.086677,348.521355 413.185843,354.237604 L246,450.762396 C236.099166,456.478645 223.900834,456.478645 214,450.762396 L46.8141571,354.237604 C36.9133227,348.521355 30.8141571,337.95729 30.8141571,326.524791 L30.8141571,133.475209 C30.8141571,122.04271 36.9133227,111.478645 46.8141571,105.762396 L214,9.23760431 C223.900834,3.52135487 236.099166,3.52135487 246,9.23760431 Z" id="Polygon" fill="#186DBE"></path>
                        <g id="Sub" transform="translate(120.000000, 120.000000)" stroke="#FFFFFF" stroke-width="25">
                            <path d="M70.5110816,62.5 C65.8956075,62.5 64.9849959,62.6758472 64.0802201,63.1597266 C63.6511686,63.3891859 63.3891859,63.6511686 63.1597266,64.0802201 C62.6758472,64.9849959 62.5,65.8956075 62.5,70.5110816 L62.5,110 C62.5,136.233526 83.7664744,157.5 110,157.5 C136.233526,157.5 157.5,136.233526 157.5,110 C157.5,83.7664744 136.233526,62.5 110,62.5 L70.5110816,62.5 Z" id="Rectangle"></path>
                            <path d="M20.5110816,12.5 C15.8956075,12.5 14.9849959,12.6758472 14.0802201,13.1597266 C13.6511686,13.3891859 13.3891859,13.6511686 13.1597266,14.0802201 C12.6758472,14.9849959 12.5,15.8956075 12.5,20.5110816 L12.5,110 C12.5,130.527753 16.5831029,148.369678 24.3793002,162.947299 C31.9296573,177.06524 42.9347602,188.070343 57.0527006,195.6207 C71.6303221,203.416897 89.4722468,207.5 110,207.5 C130.527753,207.5 148.369678,203.416897 162.947299,195.6207 C177.06524,188.070343 188.070343,177.06524 195.6207,162.947299 C203.416897,148.369678 207.5,130.527753 207.5,110 C207.5,89.4722468 203.416897,71.6303221 195.6207,57.0527006 C188.070343,42.9347602 177.06524,31.9296573 162.947299,24.3793002 C148.369678,16.5831029 130.527753,12.5 110,12.5 L20.5110816,12.5 Z" id="Rectangle"></path>
                        </g>
                    </g>
                    <g id="Name-and-slogan" transform="translate(505.000000, 37.000000)">
                        <text id="CDS-Vietnam" font-family="Montserrat-ExtraBold, Montserrat" font-size="240" font-weight="600" letter-spacing="6" fill="#383838">
                            <tspan x="0" y="232">CDS Vietna</tspan>
                            <tspan x="1498.56" y="232">m</tspan>
                        </text>
                        <text id="make-your-ideas-come" font-family="Montserrat-SemiBold, Montserrat" font-size="100" font-weight="500" letter-spacing="12.3999996" fill="#707070">
                            <tspan x="20" y="370">make your ideas come true</tspan>
                        </text>
                    </g>
                </g>
            </g>
        </g>
    </g>
</svg>